<svg width="353" height="224" viewBox="0 0 353 224" fill="none" xmlns="http://www.w3.org/2000/svg">
<g clip-path="url(#clip0_2421_37717)">
<rect x="58.2344" y="24.0801" width="144.835" height="124.145" rx="10.3454" transform="rotate(-15 58.2344 24.0801)" fill="#9C32EF"/>
<path fill-rule="evenodd" clip-rule="evenodd" d="M151.516 20.5088C145.083 22.2327 139.513 31.5419 136.742 37.3199C131.453 33.7017 121.975 28.4243 115.542 30.1481C104.154 33.1995 99.9347 43.8502 102.964 55.155C107.997 73.94 149.594 85.2857 149.594 85.2857C149.594 85.2857 179.946 54.6614 175.126 36.6742C172.097 25.3694 162.904 17.4575 151.516 20.5088Z" fill="#F9F9F8"/>
<path fill-rule="evenodd" clip-rule="evenodd" d="M51.5708 79.1816C50.4787 75.1056 54.4636 71.5074 58.4073 73.0084L156.293 110.265L222.435 29.0572C225.1 25.7854 230.35 26.9092 231.442 30.9851L258.277 131.135C261.235 142.173 254.685 153.518 243.647 156.476L103.747 193.962C92.7089 196.919 81.3634 190.369 78.4059 179.331L51.5708 79.1816Z" fill="#2A356E"/>
<line y1="-5" x2="353" y2="-5" transform="matrix(1 0 0 -1 0 0)" stroke="#2A356E" stroke-width="10"/>
</g>
<defs>
<clipPath id="clip0_2421_37717">
<rect width="353" height="224" fill="white"/>
</clipPath>
</defs>
</svg>
