<svg width="226" height="188" viewBox="0 0 226 188" fill="none" xmlns="http://www.w3.org/2000/svg">
<g clip-path="url(#clip0_2421_37730)">
<rect x="7.52344" y="38.0801" width="144.835" height="124.145" rx="10.3454" transform="rotate(-15 7.52344 38.0801)" fill="#9C32EF"/>
<path fill-rule="evenodd" clip-rule="evenodd" d="M100.805 34.5088C94.3718 36.2327 88.8024 45.5419 86.0312 51.3199C80.7422 47.7017 71.2643 42.4243 64.8309 44.1481C53.443 47.1995 49.2238 57.8502 52.2529 69.155C57.2863 87.94 98.8836 99.2857 98.8836 99.2857C98.8836 99.2857 129.235 68.6614 124.415 50.6742C121.386 39.3694 112.193 31.4575 100.805 34.5088Z" fill="#F9F9F8"/>
<path fill-rule="evenodd" clip-rule="evenodd" d="M0.85989 93.1816C-0.232254 89.1056 3.75264 85.5074 7.69636 87.0084L105.582 124.265L171.724 43.0572C174.389 39.7854 179.639 40.9092 180.731 44.9851L207.567 145.135C210.524 156.173 203.974 167.518 192.936 170.476L53.0358 207.962C41.998 210.919 30.6525 204.369 27.6949 193.331L0.85989 93.1816Z" fill="#2A356E"/>
</g>
<defs>
<clipPath id="clip0_2421_37730">
<rect width="226" height="188" fill="white"/>
</clipPath>
</defs>
</svg>
