<svg width="24" height="24" viewBox="0 0 24 24" fill="#ffffff" xmlns="http://www.w3.org/2000/svg">
    <path d="M18.9419 5.28444C17.6473 4.6844 16.263 4.24831 14.8157 4C14.638 4.31833 14.4304 4.74648 14.2872 5.08708C12.7488 4.85789 11.2245 4.85789 9.7143 5.08708C9.57116 4.74648 9.3588 4.31833 9.17947 4C7.73067 4.24831 6.3448 4.686 5.05016 5.28762C2.43887 9.19659 1.73099 13.0085 2.08493 16.7662C3.81688 18.0475 5.49534 18.8258 7.14548 19.3351C7.55291 18.7796 7.91628 18.1891 8.22931 17.5668C7.63313 17.3424 7.06211 17.0654 6.52256 16.7439C6.6657 16.6389 6.80571 16.5291 6.94098 16.4161C10.2318 17.9408 13.8074 17.9408 17.0589 16.4161C17.1958 16.5291 17.3358 16.6389 17.4774 16.7439C16.9362 17.067 16.3637 17.344 15.7675 17.5684C16.0805 18.1891 16.4423 18.7812 16.8513 19.3366C18.503 18.8273 20.1831 18.0491 21.915 16.7662C22.3303 12.41 21.2056 8.63315 18.9419 5.28444ZM8.67765 14.4552C7.68977 14.4552 6.87963 13.5416 6.87963 12.4291C6.87963 11.3166 7.67247 10.4014 8.67765 10.4014C9.68285 10.4014 10.493 11.315 10.4757 12.4291C10.4772 13.5416 9.68285 14.4552 8.67765 14.4552ZM15.3223 14.4552C14.3344 14.4552 13.5243 13.5416 13.5243 12.4291C13.5243 11.3166 14.3171 10.4014 15.3223 10.4014C16.3275 10.4014 17.1376 11.315 17.1203 12.4291C17.1203 13.5416 16.3275 14.4552 15.3223 14.4552Z" fill="#ffffff" />
</svg>