<svg width="83" height="103" viewBox="0 0 83 103" fill="none" xmlns="http://www.w3.org/2000/svg">
<path d="M82.899 0H46.1196C45.9742 0 45.8288 0 45.6835 0C44.4841 0 43.3212 0.036286 42.1218 0.036286C36.743 0.108859 30.8918 1.30632 25.9127 3.70123C22.7509 5.18898 19.9161 7.54761 17.1904 9.90624C16.8269 10.2328 16.4635 10.5231 16.1364 10.8497C11.6298 15.0589 8.03186 20.3568 5.3788 26.2715C5.26977 26.4892 5.19709 26.7069 5.08806 26.9247L5.01537 27.1061C2.9438 32.2225 1.63545 37.5566 1.16298 42.9633C0.399775 46.6646 0 50.4021 0 54.2122C0 61.3244 1.38104 68.3277 4.07044 74.9318L4.14313 75.1133C9.04947 86.4347 16.7542 94.4177 27.0757 98.881C31.4369 100.986 37.3609 102.002 45.1747 102.002H68.398L82.9353 80.3023V0H82.899Z" fill="url(#paint0_linear_2423_38982)"/>
<path d="M2.55469 39.7844C2.55469 33.8095 3.87254 28.0531 6.50824 22.4789C11.2672 12.97 18.6984 6.30284 28.7287 2.55028C32.7189 0.874382 38.7224 0 46.7028 0H82.9437V15.4474H44.726C33.2314 15.4474 25.2144 20.3658 20.6752 30.2391C19.2475 33.4451 18.5154 36.6148 18.5154 39.7844C18.5154 42.9905 19.2475 46.1601 20.6752 49.3297C25.2144 59.203 33.2314 64.1214 44.726 64.1214H60.7599V79.4959H46.6662C38.6858 79.4959 32.6823 78.658 28.6921 76.9456C18.6252 73.2295 11.2305 66.5988 6.47163 57.0899C3.87253 51.5157 2.55469 45.7229 2.55469 39.7844ZM41.1385 32.0971H82.9437V79.4959H67.2027V47.3988H41.1385V32.0971Z" fill="#2A356E"/>
<defs>
<linearGradient id="paint0_linear_2423_38982" x1="83.0002" y1="-5.12066e-07" x2="25.2156" y2="114.703" gradientUnits="userSpaceOnUse">
<stop stop-color="#9C32EF"/>
<stop offset="1" stop-color="#FB6269"/>
</linearGradient>
</defs>
</svg>
