<svg width="90" height="26" fill="none" xmlns="http://www.w3.org/2000/svg"><path d="M29.45 13a6.8 6.8 0 01.686-2.968c.825-1.63 2.113-2.774 3.852-3.418.692-.287 1.733-.437 3.116-.437h6.282v2.65h-6.625c-1.992 0-3.382.843-4.169 2.536A3.961 3.961 0 0032.218 13c0 .55.127 1.094.374 1.637.787 1.694 2.177 2.537 4.17 2.537h2.779v2.637h-2.443c-1.384 0-2.425-.144-3.116-.438-1.745-.637-3.027-1.774-3.852-3.405A6.903 6.903 0 0129.45 13zm6.69-1.318h7.246v8.129h-2.728v-5.505h-4.519v-2.624zM50.427 19.81v-2.23a8.456 8.456 0 01-3.065-1.512c-.761-.675-1.256-1.237-1.49-1.687a6.921 6.921 0 01-.743-1.625c-.203-.63-.305-1.487-.305-2.574V6.183h2.786v4.118c0 1.2.235 2.124.71 2.774.096.206.407.537.92.993.775.6 1.625.9 2.545.9.92 0 1.77-.3 2.545-.9.52-.456.825-.787.92-.993.476-.65.711-1.575.711-2.774V6.183h2.786v3.993c0 1.087-.102 1.943-.305 2.574a5.852 5.852 0 01-.742 1.624c-.229.45-.724 1.013-1.479 1.687a8.56 8.56 0 01-3.078 1.513v2.23h-2.716v.006zM60.201 6.177h8.897c1.567 0 2.798.462 3.687 1.393.4.37.672.719.825 1.063.349.68.52 1.35.52 2v.387c0 1-.438 1.968-1.313 2.924-.565.53-1.08.868-1.536 1.024 1.167 1.225 1.751 2.843 1.751 4.855h-2.798v-.206c0-1.487-.61-2.674-1.834-3.549-.698-.487-1.612-.731-2.742-.731h-5.457v-2.63h9.068c.99 0 1.663-.482 2.018-1.45.038-.194.064-.362.076-.494 0-.537-.228-1.024-.685-1.456-.394-.3-.806-.456-1.25-.456 0-.025-.133-.037-.406-.037H60.2V6.177zM83.415 6.177h6.067v2.65h-6.46c-1.168 0-2.05.212-2.653.63-.819.425-1.447 1.238-1.885 2.45a4.83 4.83 0 00-.146 1.062c0 1.03.394 1.993 1.174 2.893.514.487.99.806 1.44.962.496.219 1.169.331 2.032.331h6.498v2.65h-6.188c-1.58 0-2.754-.188-3.515-.57-1.707-.73-2.925-1.93-3.662-3.592a6.595 6.595 0 01-.539-2.662c0-2.03.819-3.767 2.45-5.204 1.072-.794 2.036-1.262 2.9-1.412.444-.125 1.269-.188 2.487-.188zm-1.174 5.505h7.234V14.3h-7.234v-2.618z" fill="#2A356E"/><path d="M0 9.771C0 6.67 0 5.12.613 3.934a5.583 5.583 0 012.458-2.42C4.275.91 5.85.91 9 .91h6.558c3.15 0 4.726 0 5.93.603a5.583 5.583 0 012.457 2.42c.613 1.186.613 2.737.613 5.838v6.458c0 3.102 0 4.653-.613 5.837a5.583 5.583 0 01-2.458 2.42c-1.203.604-2.778.604-5.929.604H9c-3.15 0-4.725 0-5.929-.603a5.583 5.583 0 01-2.458-2.42C0 20.881 0 19.33 0 16.228V9.77z" fill="url(#paint0_linear)"/><path d="M19.473 4.221H12.98c-.21 0-.412.007-.621.007-.939.012-1.96.218-2.828.63-.552.256-1.046.662-1.522 1.068-.063.057-.126.107-.184.163-.786.724-1.413 1.636-1.876 2.654-.02.038-.032.075-.051.113l-.013.031a9.366 9.366 0 00-.672 2.73 9.327 9.327 0 00.507 5.503l.013.03c.856 1.95 2.2 3.323 4 4.092.762.362 1.795.537 3.158.537h4.052l2.536-3.735V4.22h-.006z" fill="#2A356E"/><path d="M5.455 11.07c0-1.03.23-2.02.69-2.98.83-1.636 2.126-2.784 3.876-3.43.696-.288 1.743-.439 3.136-.439h6.322v2.66h-6.667c-2.006 0-3.404.846-4.196 2.545a3.967 3.967 0 00-.377 1.643c0 .552.128 1.098.377 1.643.792 1.7 2.19 2.546 4.196 2.546h2.797v2.647H13.15c-1.392 0-2.44-.144-3.136-.44-1.756-.639-3.046-1.78-3.876-3.417a6.913 6.913 0 01-.683-2.979zm6.73-1.324h7.294v8.159h-2.746V12.38h-4.547V9.746z" fill="#fff"/><defs><linearGradient id="paint0_linear" x1="1.901" y1="2.668" x2="22.45" y2="23.77" gradientUnits="userSpaceOnUse"><stop offset=".004" stop-color="#D723FF"/><stop offset="1" stop-color="#9B32EF"/></linearGradient></defs></svg>
